<?xml version="1.0" encoding="UTF-8"?>
<svg id="Layer_1" data-name="Layer 1" xmlns="http://www.w3.org/2000/svg" viewBox="0 0 43.57 43.57">
  <defs>
    <style>
      .cls-1 {
        fill-rule: evenodd;
      }
    </style>
  </defs>
  <g id="_445412144" data-name=" 445412144">
    <g>
      <path id="_445414400" data-name=" 445414400" class="cls-1" d="M33.51,33.8H10.06c-.14,0-.25-.11-.25-.25V10.01c0-.14.11-.25.25-.25h4.65c.14,0,.25.11.25.25v18.66h18.55c.14,0,.25.11.25.25v4.63c0,.14-.12.25-.25.25h0ZM10.31,33.3h22.94v-4.13H14.71c-.14,0-.25-.11-.25-.25V10.26h-4.15v23.04h0Z"/>
      <g>
        <path id="_445414808" data-name=" 445414808" class="cls-1" d="M14.71,12.82h-2.08c-.14,0-.25-.11-.25-.25s.11-.25.25-.25h2.08c.14,0,.25.11.25.25s-.11.25-.25.25Z"/>
        <path id="_445414256" data-name=" 445414256" class="cls-1" d="M14.71,15.12h-2.08c-.14,0-.25-.11-.25-.25s.11-.25.25-.25h2.08c.14,0,.25.11.25.25s-.11.25-.25.25Z"/>
        <path id="_445414160" data-name=" 445414160" class="cls-1" d="M14.71,17.42h-2.08c-.14,0-.25-.11-.25-.25s.11-.25.25-.25h2.08c.14,0,.25.11.25.25s-.11.25-.25.25Z"/>
        <path id="_445414232" data-name=" 445414232" class="cls-1" d="M14.71,19.72h-2.08c-.14,0-.25-.11-.25-.25s.11-.25.25-.25h2.08c.14,0,.25.11.25.25s-.11.25-.25.25Z"/>
        <path id="_445414472" data-name=" 445414472" class="cls-1" d="M14.71,22.02h-2.08c-.14,0-.25-.11-.25-.25s.11-.25.25-.25h2.08c.14,0,.25.11.25.25s-.11.25-.25.25Z"/>
        <path id="_445413872" data-name=" 445413872" class="cls-1" d="M14.71,24.32h-2.08c-.14,0-.25-.11-.25-.25s.11-.25.25-.25h2.08c.14,0,.25.11.25.25s-.11.25-.25.25Z"/>
        <path id="_445413536" data-name=" 445413536" class="cls-1" d="M14.71,26.62h-2.08c-.14,0-.25-.11-.25-.25s.11-.25.25-.25h2.08c.14,0,.25.11.25.25s-.11.25-.25.25Z"/>
      </g>
      <g>
        <path id="_445413920" data-name=" 445413920" class="cls-1" d="M17.21,31.24c-.14,0-.25-.11-.25-.25v-2.07c0-.14.11-.25.25-.25s.25.11.25.25v2.07c0,.14-.11.25-.25.25Z"/>
        <path id="_445413560" data-name=" 445413560" class="cls-1" d="M19.51,31.24c-.14,0-.25-.11-.25-.25v-2.07c0-.14.11-.25.25-.25s.25.11.25.25v2.07c0,.14-.11.25-.25.25Z"/>
        <path id="_445413704" data-name=" 445413704" class="cls-1" d="M21.8,31.24c-.14,0-.25-.11-.25-.25v-2.07c0-.14.11-.25.25-.25s.25.11.25.25v2.07c0,.14-.11.25-.25.25Z"/>
        <path id="_445414016" data-name=" 445414016" class="cls-1" d="M24.1,31.24c-.14,0-.25-.11-.25-.25v-2.07c0-.14.11-.25.25-.25s.25.11.25.25v2.07c0,.14-.11.25-.25.25Z"/>
        <path id="_445413896" data-name=" 445413896" class="cls-1" d="M26.4,31.24c-.14,0-.25-.11-.25-.25v-2.07c0-.14.11-.25.25-.25s.25.11.25.25v2.07c0,.14-.11.25-.25.25Z"/>
        <path id="_445413320" data-name=" 445413320" class="cls-1" d="M28.7,31.24c-.14,0-.25-.11-.25-.25v-2.07c0-.14.11-.25.25-.25s.25.11.25.25v2.07c0,.14-.11.25-.25.25Z"/>
        <path id="_445413104" data-name=" 445413104" class="cls-1" d="M31,31.24c-.14,0-.25-.11-.25-.25v-2.07c0-.14.11-.25.25-.25s.25.11.25.25v2.07c0,.14-.11.25-.25.25Z"/>
      </g>
      <path id="_445413152" data-name=" 445413152" class="cls-1" d="M24.08,25.59s-.09-.01-.13-.03l-2.46-1.41s0,0,0,0l-2.44-1.42c-.08-.05-.12-.13-.12-.22v-5.65c0-.09.05-.17.13-.22l2.44-1.41,2.46-1.42c.08-.05.17-.05.25,0l2.44,1.42,2.44,1.41c.08.05.13.13.13.22v5.65c0,.09-.05.17-.12.22l-2.44,1.42-2.44,1.41s-.08.04-.12.04h0ZM21.75,23.71l2.33,1.34,2.32-1.34,2.32-1.35v-5.36l-2.32-1.34-2.32-1.35-2.33,1.35-2.32,1.34v5.36l2.32,1.35h0Z"/>
      <path id="_445413248" data-name=" 445413248" class="cls-1" d="M24.08,19.94s-.09-.01-.13-.03l-4.9-2.83c-.12-.07-.16-.22-.09-.34.07-.12.22-.16.34-.09l4.9,2.83c.12.07.16.22.09.34-.05.08-.13.12-.22.12Z"/>
      <path id="_445413056" data-name=" 445413056" class="cls-1" d="M24.08,19.94c-.09,0-.17-.05-.22-.13-.07-.12-.03-.27.09-.34l4.88-2.83c.12-.07.27-.03.34.09.07.12.03.27-.09.34l-4.88,2.83s-.08.04-.13.04Z"/>
      <path id="_445412984" data-name=" 445412984" class="cls-1" d="M24.08,25.59c-.14,0-.25-.11-.25-.25v-5.65c0-.14.11-.25.25-.25s.25.11.25.25v5.65c0,.14-.11.25-.25.25Z"/>
      <path id="_445413200" data-name=" 445413200" class="cls-1" d="M29.83,26.82h-11.5c-.37,0-.72-.15-.98-.41-.26-.26-.41-.61-.41-.98v-11.5c0-.37.15-.72.41-.98.26-.26.61-.41.98-.41h11.5c.37,0,.72.15.98.41.26.26.41.61.41.98v11.5c0,.37-.15.72-.41.98-.26.26-.61.41-.98.41h0ZM18.33,13.04c-.48,0-.89.41-.89.89v11.5c0,.48.41.89.89.89h11.5c.48,0,.89-.41.89-.89v-11.5c0-.48-.41-.89-.89-.89h-11.5Z"/>
    </g>
    <path id="_445412672" data-name=" 445412672" d="M21.78,0c6.02,0,11.46,2.44,15.4,6.38s6.38,9.39,6.38,15.4-2.44,11.46-6.38,15.4-9.39,6.38-15.4,6.38-11.46-2.44-15.4-6.38S0,27.8,0,21.78,2.44,10.32,6.38,6.38C10.32,2.44,15.77,0,21.78,0ZM36.83,6.74c-3.85-3.85-9.17-6.23-15.04-6.23S10.59,2.89,6.74,6.74.51,15.91.51,21.78s2.38,11.19,6.23,15.04c3.85,3.85,9.17,6.23,15.04,6.23s11.19-2.38,15.04-6.23c3.85-3.85,6.23-9.17,6.23-15.04s-2.38-11.19-6.23-15.04Z"/>
  </g>
</svg>